<?xml version="1.0" encoding="iso-8859-1"?>
<!-- Generator: Adobe Illustrator 19.0.0, SVG Export Plug-In . SVG Version: 6.00 Build 0)  -->
<svg version="1.1" id="Layer_1" xmlns="http://www.w3.org/2000/svg" xmlns:xlink="http://www.w3.org/1999/xlink" x="0px" y="0px"
	 viewBox="0 0 514 514" style="enable-background:new 0 0 514 514;" xml:space="preserve">
<g>
	<g>
		<path d="M484.652,361.2c-10.8-19.2-27.6-31.6-46.8-34.8c-2.8-0.4-5.6-0.8-8.8-0.8c-15.2,0-28,6.4-39.6,12c-3.6,2-7.2,3.6-10.8,4.8
			c-5.2-31.6-28.4-132-112-188.8c18-46,9.2-115.2-32.8-151.6c-1.6-1.6-4-2-6-2c-2,0.4-4,1.2-5.6,3.2l-13.2,16.8
			c-2.8,3.2-2.4,8,0.8,10.8c24,21.2,37.6,48,39.6,78c1.6,30.4-8.8,61.2-28.4,83.2c-3.2,3.2-6,6.8-9.2,10c-30,33.2-67.2,74-78,138.8
			c-3.2-1.2-6.4-2.8-9.6-4.4c-11.2-5.6-24.4-12-39.6-12c-2.8,0-5.6,0.4-8.8,0.8c-18.8,2.8-36,15.2-46.8,34
			c-13.6,24-15.2,54-4.4,82.4c20,51.6,60.4,62.8,73.6,66.4c6.8,2,17.6,4.8,30.4,4.8c23.6,0,46-8.8,66.4-25.2
			c24-19.2,37.6-46,37.6-73.6c0-21.6-8.4-40.8-23.6-52.8s-32-13.2-47.2-14.4c-4.4-0.4-8.8-0.8-12.8-1.2c9.6-61.2,44-99.2,74.8-132.4
			c14-15.2,27.2-29.6,36-44.4c77.2,54,98.8,151.2,103.6,178.4c-3.6,0.4-7.6,0.8-11.6,1.2c-15.2,1.2-32,2.4-47.2,14.4
			c-14.8,12-23.6,31.2-23.6,52.8c0,27.6,13.6,54.4,37.6,73.6c20.4,16.4,42.8,24.8,66.4,24.8c12.8,0,23.6-2.4,30.4-4.4
			c13.2-3.6,53.6-14.4,73.6-66C500.252,415.2,498.652,385.2,484.652,361.2z"/>
	</g>
</g>
<g>
</g>
<g>
</g>
<g>
</g>
<g>
</g>
<g>
</g>
<g>
</g>
<g>
</g>
<g>
</g>
<g>
</g>
<g>
</g>
<g>
</g>
<g>
</g>
<g>
</g>
<g>
</g>
<g>
</g>
</svg>
