<?xml version="1.0" encoding="iso-8859-1"?>
<!-- Generator: Adobe Illustrator 19.0.0, SVG Export Plug-In . SVG Version: 6.00 Build 0)  -->
<svg version="1.1" id="Capa_1" xmlns="http://www.w3.org/2000/svg" xmlns:xlink="http://www.w3.org/1999/xlink" x="0px" y="0px"
	 viewBox="0 0 512.19 512.19" style="enable-background:new 0 0 512.19 512.19;" xml:space="preserve">
<g>
	<g>
		<path d="M472.567,188.777c-0.341-0.512-0.853-1.109-1.536-1.963c-0.597-0.853-1.28-1.536-2.475-2.901
			c-1.03-1.347-2.141-2.629-3.328-3.84l-0.085-0.085c-0.768-0.939-1.707-1.877-2.901-3.072l-0.171-0.171l-0.683-0.683l-0.683-0.683
			c-0.348-0.391-0.718-0.761-1.109-1.109l-0.171-0.171c-0.594-0.66-1.252-1.26-1.963-1.792
			c-42.581-38.4-104.96-39.339-142.251-2.133c-12.205,12.183-20.723,27.564-24.576,44.373
			c-15.292-11.296-26.494-27.26-31.915-45.483c-8.192-30.464,2.816-66.475,32.853-107.008c1.167,25.616,17.526,48.056,41.557,57.003
			c15.097,5.747,31.121,8.668,47.275,8.619c27.452-0.334,54.415-7.302,78.592-20.309c2.041-1.199,3.516-3.166,4.096-5.461
			c0.487-2.328,0.026-4.754-1.28-6.741c-5.461-8.021-54.443-79.104-84.651-90.709c-23.086-9.089-49.344-4.037-67.411,12.968
			l-0.088,0.002c-37.212,0.575-72.609,16.18-98.133,43.264c-51.541,54.101-63.317,144.213-65.792,191.061
			c-14.091-8.301-30.153-12.663-46.507-12.629c-52.565,0-95.915,44.544-98.987,102.059c-0.142,1.046-0.199,2.102-0.171,3.157v2.901
			c0,1.536,0,3.243,0.085,4.181c0,1.963,0.171,3.84,0.341,5.717v0.171c0.01,0.544,0.067,1.087,0.171,1.621
			c0,0.256,0.085,0.427,0.085,0.683C7.842,445.289,74.658,512.19,153.676,512.19c57.344,0,108.288-35.243,134.571-87.381
			c23.78,12.359,50.171,18.854,76.971,18.944c39.098,0.499,76.782-14.611,104.704-41.984
			C525.132,346.473,526.327,254.996,472.567,188.777z M311.372,44.99c6.848-17.151,23.605-28.266,42.069-27.904
			c6.013,0.029,11.971,1.157,17.579,3.328c19.029,7.253,53.675,51.968,71.083,76.288c-17.664,7.851-60.416,22.784-102.827,6.485
			C315.535,94.783,303.06,68.764,311.372,44.99z M99.234,290.324c-25.429,0-46.507,23.637-47.872,53.76l-0.085,1.451v1.707
			c0,4.713-3.82,8.533-8.533,8.533s-8.533-3.82-8.533-8.533l0.085-3.925c1.877-39.253,30.379-70.059,64.939-70.059
			c4.713,0,8.533,3.821,8.533,8.533S103.946,290.324,99.234,290.324z M162.892,251.07c2.731-45.056,14.251-129.536,61.013-178.603
			c17.497-18.734,40.609-31.275,65.853-35.731c-0.237,0.201-0.458,0.422-0.659,0.659c-41.728,50.773-57.515,96.512-46.848,136.107
			c5.728,19.958,17.359,37.717,33.365,50.944c-13.135,4.125-25.158,11.187-35.157,20.651c-10.317-3.979-21.284-6.004-32.341-5.973
			C192.26,239.094,176.668,243.213,162.892,251.07z M272.716,354.409l-1.365,12.288c-0.462,4.318-4.105,7.593-8.448,7.595h-0.939
			c-4.689-0.542-8.051-4.782-7.509-9.471c0,0,0-0.001,0-0.001l1.621-17.408l-0.085-3.413c-0.128-4.708,3.57-8.635,8.277-8.789
			c4.591-0.257,8.521,3.257,8.777,7.848c0.006,0.115,0.01,0.229,0.012,0.344l0.085,4.523L272.716,354.409z M307.277,347.241
			c0.027,1.623-0.03,3.247-0.171,4.864c0.03,1.682-0.055,3.364-0.256,5.035v0.171c-0.01,0.544-0.067,1.087-0.171,1.621
			c0,0.256-0.085,0.427-0.085,0.683c-1.392,16.984-5.214,33.68-11.349,49.579c-2.219-1.11-4.352-2.219-6.486-3.499
			c-4.078-2.322-9.266-0.911-11.605,3.158l-0.171-0.085c6.382-14.682,10.496-30.248,12.203-46.165v-0.683l0.939-19.968
			c-0.984-33.596-20.408-63.913-50.517-78.848c3.297,1.183,6.982,0.236,9.301-2.389c0.469-0.554,0.982-1.068,1.536-1.536
			c2.104-2.12,4.357-4.088,6.741-5.888c30.068,19.399,48.719,52.302,49.92,88.064c0.142,0.989,0.199,1.988,0.171,2.987V347.241z
			 M382.796,193.982c-11.687-0.212-22.97,4.276-31.317,12.459c-1.632,1.565-3.798,2.45-6.059,2.475
			c-2.264-0.009-4.436-0.896-6.059-2.475c-3.328-3.353-3.328-8.764,0-12.117c11.588-11.347,27.218-17.611,43.435-17.408
			c4.713,0,8.533,3.82,8.533,8.533S387.509,193.982,382.796,193.982z M445.772,377.62c-1.623,1.578-3.795,2.466-6.059,2.475
			c-2.261-0.025-4.427-0.91-6.059-2.475c-3.328-3.353-3.328-8.764,0-12.117c16.87-17.104,26.602-39.984,27.221-64
			c0.121-4.691,4.022-8.395,8.712-8.274c4.691,0.121,8.395,4.022,8.274,8.712c-0.001,0.053-0.003,0.106-0.006,0.159
			C477.097,330.424,465.632,357.409,445.772,377.62z"/>
	</g>
</g>
<g>
</g>
<g>
</g>
<g>
</g>
<g>
</g>
<g>
</g>
<g>
</g>
<g>
</g>
<g>
</g>
<g>
</g>
<g>
</g>
<g>
</g>
<g>
</g>
<g>
</g>
<g>
</g>
<g>
</g>
</svg>
